<svg xmlns="http://www.w3.org/2000/svg" width="24" height="24"><path d="M0 0H24V24H0z" fill="none"/><path d="M6 2C4.9 2 4 2.9 4 4v16c0 1.1.9 2 2 2h12c1.1.0 2-.9 2-2V4C20 2.9 19.1 2 18 2z"/><path style="fill:#f9f9f9" d="m8.9208984 17.592773q-.7851562.0-1.2597656-.46289-.46875-.457031-.46875-1.289063v-1.921875q0-.667968-.3222656-.996093Q6.5478516 12.588867 5.8505859 12.577148V11.43457q.7089844-.0293 1.0253907-.357422.3164062-.333984.3164062-.996093V8.1591797q0-.8554688.4570313-1.3007813Q8.1123047 6.4072266 8.9208984 6.4072266H10.075195V7.5205078H9.7353516q-.5332032.0-.7734375.3046875-.234375.3046875-.234375.9199219v1.7636718q0 .556641-.3398438.960938-.3339844.404296-.8730469.515625v.02344q.5566407.128906.8847657.533203.328125.398438.328125.94336v1.763671q0 .621094.234375.919922.2402343.304688.7734375.304688h.3398434v1.11914zm4.9921876-1.11914h.333984q.544922.0.773438-.304688.234375-.298828.234375-.919922v-1.763671q0-.539063.328125-.94336.333984-.404297.884765-.533203v-.02344q-.533203-.111326-.873046-.509763Q15.254883 11.071289 15.254883 10.508789V8.7451172q0-.6152344-.234375-.9199219Q14.791992 7.5205078 14.24707 7.5205078H13.913086V6.4072266h1.154297q.808594.0 1.265625.4511718.46289.4453125.46289 1.3007813v1.9218753q0 .65625.322266.990234t1.03125.363281v1.142578q-.708984.01172-1.03125.351563-.322266.339844-.322266.990234v1.921875q0 .826172-.46875 1.289063-.46875.46289-1.259765.46289h-1.154297z" aria-label="{ }"/></svg>